<?xml version="1.0" encoding="UTF-8" standalone="no"?>
<svg
   height="16px"
   viewBox="0 0 16 16"
   width="16px"
   version="1.1"
   id="svg1"
   sodipodi:docname="match-words-symbolic.svg"
   inkscape:version="1.4.2 (ebf0e940d0, 2025-05-08)"
   xmlns:inkscape="http://www.inkscape.org/namespaces/inkscape"
   xmlns:sodipodi="http://sodipodi.sourceforge.net/DTD/sodipodi-0.dtd"
   xmlns="http://www.w3.org/2000/svg"
   xmlns:svg="http://www.w3.org/2000/svg">
  <defs
     id="defs1">
    <inkscape:path-effect
       effect="fillet_chamfer"
       id="path-effect112649"
       is_visible="true"
       lpeversion="1"
       nodesatellites_param="F,0,0,1,0,0,0,1 @ IF,0,0,1,0,0,0,1 @ F,0,0,1,0,1,0,1 @ F,0,0,1,0,1,0,1 @ F,0,0,1,0,0,0,1 @ F,0,0,1,0,0,0,1 @ F,0,0,1,0,0,0,1 @ F,0,0,1,0,0,0,1"
       unit="px"
       method="auto"
       mode="F"
       radius="1"
       chamfer_steps="1"
       flexible="false"
       use_knot_distance="true"
       apply_no_radius="true"
       apply_with_radius="true"
       only_selected="false"
       hide_knots="false" />
    <inkscape:path-effect
       effect="fillet_chamfer"
       id="path-effect112560-6"
       is_visible="true"
       lpeversion="1"
       nodesatellites_param="F,0,0,1,0,0,0,1 @ F,0,0,1,0,1.9991251,0,1 @ F,0,0,1,0,2.0727539,0,1 @ F,0,1,1,0,2.0727539,0,1 @ F,0,1,1,0,2.0727539,0,1 @ F,0,0,1,0,0,0,1"
       unit="px"
       method="auto"
       mode="F"
       radius="0"
       chamfer_steps="1"
       flexible="false"
       use_knot_distance="true"
       apply_no_radius="true"
       apply_with_radius="true"
       only_selected="false"
       hide_knots="false" />
    <inkscape:path-effect
       effect="join_type"
       id="path-effect112651"
       is_visible="true"
       lpeversion="1"
       linecap_type="round"
       line_width="2"
       linejoin_type="round"
       miter_limit="100"
       attempt_force_join="true" />
  </defs>
  <sodipodi:namedview
     id="namedview1"
     pagecolor="#ffffff"
     bordercolor="#000000"
     borderopacity="0.25"
     inkscape:showpageshadow="2"
     inkscape:pageopacity="0.0"
     inkscape:pagecheckerboard="0"
     inkscape:deskcolor="#d1d1d1"
     showgrid="true"
     inkscape:zoom="32"
     inkscape:cx="0.953125"
     inkscape:cy="9.109375"
     inkscape:window-width="1920"
     inkscape:window-height="1014"
     inkscape:window-x="0"
     inkscape:window-y="0"
     inkscape:window-maximized="1"
     inkscape:current-layer="svg1">
    <inkscape:grid
       id="grid1"
       units="px"
       originx="0"
       originy="0"
       spacingx="1"
       spacingy="1"
       empcolor="#0099e5"
       empopacity="0.30196078"
       color="#0099e5"
       opacity="0.14901961"
       empspacing="5"
       enabled="true"
       visible="true" />
  </sodipodi:namedview>
  <path
     id="path1"
     d="M 9 0.01171875 C 9.0381867 3.7675261 9 12 9 12 L 13 12.011719 C 14.636712 12.016519 15.988281 10.664063 15.988281 9.0273438 L 15.988281 6.984375 C 15.988281 5.347657 14.636719 4 13 4 L 11 4 L 11 0.01171875 L 9 0.01171875 z M 1.0117188 2.0195312 L 1.0117188 4.0195312 L 4.0117188 4.0195312 C 4.4399014 4.0195312 5.0117188 4.5195376 5.0117188 5.0195312 L 5.0117188 6.0195312 L 3.0117188 6.0195312 C 2.0924621 6.0195312 1.2761124 6.3996065 0.76171875 6.984375 C 0.24728726 7.5691813 0.019003224 8.3086544 0.025390625 9.0292969 C 0.03294968 9.7499016 0.27107715 10.478108 0.78320312 11.056641 C 1.2955181 11.635173 2.1034227 12.019531 3.0117188 12.019531 L 7.0117188 12.019531 L 7.0117188 5.0195312 C 7.0117188 3.385188 5.6919077 2.0195312 4.0117188 2.0195312 L 1.0117188 2.0195312 z M 11 6 L 13 6 C 13.554688 6 13.988281 6.429688 13.988281 6.984375 L 13.988281 9.0273438 C 13.988281 9.5820307 13.554688 10.011719 13 10.011719 L 11 10.011719 L 11 6 z M 3.0117188 8.0195312 L 5.0117188 8.0195312 L 5.0117188 10.019531 L 3.0117188 10.019531 C 2.6138479 10.019531 2.4330736 9.9040124 2.28125 9.7324219 C 2.129313 9.5608313 2.0280363 9.2891483 2.0253906 9.0097656 C 2.0233875 8.7304585 2.1181601 8.4698906 2.2636719 8.3046875 C 2.4091837 8.1395221 2.5894699 8.0195312 3.0117188 8.0195312 z M 0 13 L 0 15 C 0 15.552285 0.44771525 16 1 16 L 15 16 C 15.552285 16 16 15.552285 16 15 L 16 13 L 14 13 L 14 14 L 2 14 L 2 13 L 0 13 z " />
</svg>
