<?xml version="1.0" encoding="UTF-8" standalone="no"?>
<svg
   height="16px"
   viewBox="0 0 16 16"
   width="16px"
   version="1.1"
   id="svg2"
   sodipodi:docname="md-format-code-symbolic.svg"
   inkscape:version="1.4.2 (ebf0e940d0, 2025-05-08)"
   xmlns:inkscape="http://www.inkscape.org/namespaces/inkscape"
   xmlns:sodipodi="http://sodipodi.sourceforge.net/DTD/sodipodi-0.dtd"
   xmlns="http://www.w3.org/2000/svg"
   xmlns:svg="http://www.w3.org/2000/svg">
  <defs
     id="defs2" />
  <sodipodi:namedview
     id="namedview2"
     pagecolor="#ffffff"
     bordercolor="#000000"
     borderopacity="0.25"
     inkscape:showpageshadow="2"
     inkscape:pageopacity="0.0"
     inkscape:pagecheckerboard="0"
     inkscape:deskcolor="#d1d1d1"
     showgrid="true"
     inkscape:zoom="8"
     inkscape:cx="-6.4375"
     inkscape:cy="-4.1875"
     inkscape:window-width="1920"
     inkscape:window-height="1014"
     inkscape:window-x="0"
     inkscape:window-y="0"
     inkscape:window-maximized="1"
     inkscape:current-layer="svg2">
    <inkscape:grid
       id="grid2"
       units="px"
       originx="0"
       originy="0"
       spacingx="1"
       spacingy="1"
       empcolor="#0099e5"
       empopacity="0.30196078"
       color="#0099e5"
       opacity="0.14901961"
       empspacing="5"
       enabled="true"
       visible="true" />
  </sodipodi:namedview>
  <g
     fill="#222222"
     id="g2">
    <path
       d="m 10 4 v 1 c 0 0.257812 0.128906 0.527344 0.3125 0.71875 l 2.25 2.28125 l -2.25 2.28125 c -0.183594 0.191406 -0.3125 0.460938 -0.3125 0.71875 v 1 h 1 c 0.308594 0 0.550781 -0.089844 0.75 -0.28125 l 3.65625 -3.71875 l -3.65625 -3.71875 c -0.199219 -0.191406 -0.441406 -0.28125 -0.75 -0.28125 z m 0 0"
       id="path1" />
    <path
       d="m 6 4 v 1 c 0 0.257812 -0.128906 0.527344 -0.3125 0.71875 l -2.25 2.28125 l 2.25 2.28125 c 0.183594 0.191406 0.3125 0.460938 0.3125 0.71875 v 1 h -1 c -0.308594 0 -0.550781 -0.089844 -0.75 -0.28125 l -3.65625 -3.71875 l 3.65625 -3.71875 c 0.199219 -0.191406 0.441406 -0.28125 0.75 -0.28125 z m 0 0"
       id="path2" />
    <path
       id="path2-5"
       d="M 9.1928415,2.5145621 C 8.7965075,2.4029601 8.2008404,2.3876196 8.0117188,3.015625 L 6.2226529,12.11718 c -0.233574,1.084985 0.3172752,1.372395 0.625,1.417969 0.4469625,0.108243 1.0588332,-0.06545 1.1640659,-0.519524 L 9.800781,3.9140625 C 9.9508603,3.1830855 9.6979408,2.6567909 9.1928415,2.5145621 Z"
       sodipodi:nodetypes="scccccs"
       transform="translate(-0.0117188,-0.015625)"
       inkscape:label="path3" />
  </g>
</svg>
